#!OML:ASF H:\Dans Jumps\Project 1\Capture day 1\Session 1\subject.ASF
:FULLY-SPECIFIED
:DEGREES
211
root 0.196135 17.7835 -4.9716 -0.609416 1.04333 -3.39686
lowerback 4.19036 -0.434099 -0.827036
upperback 5.90106 -0.637081 1.70807
thorax 3.76663 -0.392373 2.23166
lowerneck -7.72207 0.324508 0.089925
upperneck 32.3559 0.484645 -0.135963
head 11.8441 0.207118 -0.00902714
rclavicle -1.08338e-014 1.30701e-014
rhumerus -17.2844 -8.3744 -84.9926
rradius 21.8668
rwrist 32.8439
rhand -23.6458 -26.2511
rfingers 7.12502
rthumb 2.8194 -56.2122
lclavicle -1.08338e-014 1.30701e-014
lhumerus -11.9395 -12.2358 92.0779
lradius 24.2688
lwrist 19.5349
lhand -27.5043 -9.24513
lfingers 7.12502
lthumb -0.90711 20.7327
rfemur -24.118 -5.47052 21.4397
rtibia 36.2948
rfoot 3.11239 4.81704
rtoes 10.6572
lfemur -26.6243 6.24633 -13.8096
ltibia 33.5642
lfoot 6.27797 6.06103
ltoes 45.6258
212
root 0.192876 17.4799 -4.80914 -1.50744 0.915172 -3.42284
lowerback 4.07233 -0.44795 -0.791401
upperback 5.7625 -0.652889 1.66351
thorax 3.68729 -0.396252 2.16476
lowerneck -7.74147 0.342443 0.064285
upperneck 32.7236 0.490314 -0.0539312
head 11.9974 0.21538 0.0272083
rclavicle 6.70898e-016 8.54774e-015
rhumerus -17.5812 -8.73587 -84.7331
rradius 21.6516
rwrist 33.168
rhand -23.6126 -26.3925
rfingers 7.12502
rthumb 2.85145 -56.3532
lclavicle 6.70898e-016 8.54774e-015
lhumerus -12.1875 -11.4402 91.8607
lradius 23.6555
lwrist 19.0555
lhand -27.5546 -9.15592
lfingers 7.12502
lthumb -0.955742 20.8217
rfemur -23.2359 -5.22918 21.3949
rtibia 38.3651
rfoot -2.79827 5.17633
rtoes 10.102
lfemur -26.0196 6.48189 -13.7154
ltibia 36.0865
lfoot 3.1368 1.35834
ltoes 43.4666
213
root 0.188732 17.1935 -4.6593 -2.41819 0.811736 -3.44485
lowerback 4.09782 -0.468383 -0.764871
upperback 5.63019 -0.677796 1.62847
thorax 3.53474 -0.404886 2.11414
lowerneck -7.81034 0.353849 0.0205139
upperneck 33.0519 0.492599 0.0193885
head 12.1461 0.218919 0.0633521
rclavicle -1.23371e-014 2.0276e-014
rhumerus -17.7841 -9.17572 -84.475
rradius 21.5023
rwrist 33.4902
rhand -23.6696 -26.5957
rfingers 7.12502
rthumb 2.79644 -56.5571
lclavicle -1.23371e-014 2.0276e-014
lhumerus -12.2959 -10.4962 91.6225
lradius 22.9974
lwrist 18.4855
lhand -27.6483 -9.10074
lfingers 7.12502
lthumb -1.04623 20.8764
rfemur -22.4755 -5.03767 21.3784
rtibia 40.5825
rfoot -8.55266 4.54147
rtoes 9.67231
lfemur -25.5318 6.77821 -13.6353
ltibia 38.7186
lfoot -1.09206 -3.14322
ltoes 32.9347
214
root 0.18268 16.9341 -4.52498 -3.27351 0.742565 -3.40764
lowerback 4.24206 -0.495221 -0.819052
upperback 5.50076 -0.712449 1.58952
thorax 3.32034 -0.420991 2.10616
lowerneck -7.9272 0.363292 -0.0262278
upperneck 33.3334 0.496969 0.0782837
head 12.2867 0.221275 0.0951473
rclavicle -1.04362e-014 -9.93923e-017
rhumerus -17.8613 -9.7053 -84.2313
rradius 21.415
rwrist 33.8467
rhand -23.8527 -26.8246
rfingers 7.12502
rthumb 2.61966 -56.7882
lclavicle -1.04362e-014 -9.93923e-017
lhumerus -12.242 -9.40569 91.3615
lradius 22.3009
lwrist 17.833
lhand -27.8333 -9.10337
lfingers 7.12502
lthumb -1.22492 20.8729
rfemur -22.0118 -4.86454 21.3329
rtibia 42.9866
rfoot -13.3803 3.19478
rtoes 8.91025
lfemur -25.2728 7.08593 -13.6207
ltibia 41.4277
lfoot -6.73639 -4.79619
ltoes 15.3677
215
root 0.173789 16.7059 -4.40684 -3.91765 0.707228 -3.28468
lowerback 4.36328 -0.527498 -1.00121
upperback 5.35261 -0.756962 1.54435
thorax 3.10203 -0.446131 2.16393
lowerneck -8.12985 0.377794 -0.0734343
upperneck 33.6034 0.511186 0.129635
head 12.4416 0.226926 0.12585
rclavicle -6.83322e-016 1.98785e-016
rhumerus -17.7961 -10.2988 -84.0176
rradius 21.4023
rwrist 34.2419
rhand -24.122 -27.0868
rfingers 7.12502
rthumb 2.35951 -57.0535
lclavicle -6.83322e-016 1.98785e-016
lhumerus -12.008 -8.15107 91.0791
lradius 21.5725
lwrist 17.0985
lhand -28.1285 -9.18379
lfingers 7.12502
lthumb -1.51001 20.7906
rfemur -22.077 -4.73421 21.2478
rtibia 45.6303
rfoot -17.087 1.70507
rtoes 7.61243
lfemur -25.4587 7.33176 -13.7064
ltibia 44.2111
lfoot -12.2684 -3.30093
ltoes -8.04151
216
root 0.162881 16.5034 -4.30378 -4.31289 0.676989 -3.08487
lowerback 4.40912 -0.556565 -1.30284
upperback 5.19572 -0.800299 1.49779
thorax 2.91934 -0.474418 2.28697
lowerneck -8.44012 0.399186 -0.11541
upperneck 33.8759 0.538697 0.168265
head 12.6218 0.2374 0.153067
rclavicle 7.33018e-015 -6.85807e-015
rhumerus -17.5958 -10.9054 -83.842
rradius 21.4814
rwrist 34.6562
rhand -24.4381 -27.3719
rfingers 7.12502
rthumb 2.05428 -57.3418
lclavicle 7.33018e-015 -6.85807e-015
lhumerus -11.6075 -6.7298 90.7839
lradius 20.8474
lwrist 16.2945
lhand -28.5247 -9.29988
lfingers 7.12502
lthumb -1.89266 20.6715
rfemur -22.7251 -4.62613 21.1249
rtibia 48.5272
rfoot -19.8107 0.320974
rtoes 4.29645
lfemur -26.1046 7.51312 -13.8867
ltibia 47.0842
lfoot -14.9039 -1.85329
ltoes -8.59934
217
root 0.151737 16.3207 -4.21309 -4.47891 0.634836 -2.83461
lowerback 4.34751 -0.579304 -1.68747
upperback 5.059 -0.837148 1.45776
thorax 2.81974 -0.50259 2.46227
lowerneck -8.85175 0.428399 -0.152848
upperneck 34.1362 0.579648 0.199117
head 12.8201 0.253283 0.178885
rclavicle 5.71506e-015 -3.47873e-015
rhumerus -17.2773 -11.4578 -83.7089
rradius 21.674
rwrist 35.0333
rhand -24.7261 -27.648
rfingers 7.12502
rthumb 1.77612 -57.6204
lclavicle 5.71506e-015 -3.47873e-015
lhumerus -11.0749 -5.19646 90.4926
lradius 20.1813
lwrist 15.4684
lhand -28.9988 -9.45387
lfingers 7.12502
lthumb -2.35057 20.5129
rfemur -23.8555 -4.56078 20.9694
rtibia 51.5948
rfoot -21.6788 -0.780056
rtoes 3.81923
lfemur -27.1433 7.58977 -14.1205
ltibia 50.0162
lfoot -16.778 -0.700941
ltoes -8.53239
218
root 0.142594 16.1512 -4.13163 -4.50748 0.572132 -2.59372
lowerback 4.22261 -0.602274 -2.08066
upperback 4.97221 -0.874181 1.44333
thorax 2.80893 -0.532658 2.66794
lowerneck -9.32438 0.468877 -0.194318
upperneck 34.3521 0.642796 0.217068
head 13.0142 0.276702 0.20388
rclavicle -1.22625e-014 -7.05686e-015
rhumerus -16.8797 -11.854 -83.6181
rradius 21.9884
rwrist 35.287
rhand -24.9442 -27.9015
rfingers 7.12502
rthumb 1.56545 -57.8755
lclavicle -1.22625e-014 -7.05686e-015
lhumerus -10.4841 -3.63455 90.2274
lradius 19.6448
lwrist 14.6892
lhand -29.5155 -9.62946
lfingers 7.12502
lthumb -2.84959 20.3313
rfemur -25.2262 -4.54886 20.818
rtibia 54.6482
rfoot -22.9614 -1.60502
rtoes 3.0704
lfemur -28.375 7.5901 -14.3334
ltibia 52.9111
lfoot -18.1804 0.144528
ltoes -8.49068
